<svg width="29" height="29" viewBox="0 0 29 29" fill="none" xmlns="http://www.w3.org/2000/svg">
<path d="M24.4688 4.53125H4.53125C4.05055 4.53125 3.58953 4.72221 3.24962 5.06212C2.90971 5.40203 2.71875 5.86305 2.71875 6.34375V22.6562C2.71875 23.137 2.90971 23.598 3.24962 23.9379C3.58953 24.2778 4.05055 24.4688 4.53125 24.4688H6.04809C6.2196 24.4688 6.38761 24.4202 6.53259 24.3285C6.67757 24.2369 6.79357 24.106 6.86711 23.9511C7.3078 23.0206 8.00356 22.2345 8.87349 21.6839C9.74341 21.1334 10.7518 20.8411 11.7812 20.8411C12.8107 20.8411 13.8191 21.1334 14.689 21.6839C15.5589 22.2345 16.2547 23.0206 16.6954 23.9511C16.7689 24.106 16.8849 24.2369 17.0299 24.3285C17.1749 24.4202 17.3429 24.4688 17.5144 24.4688H24.4688C24.9495 24.4688 25.4105 24.2778 25.7504 23.9379C26.0903 23.598 26.2812 23.137 26.2812 22.6562V6.34375C26.2812 5.86305 26.0903 5.40203 25.7504 5.06212C25.4105 4.72221 24.9495 4.53125 24.4688 4.53125ZM11.7812 19.0312C11.0643 19.0312 10.3634 18.8186 9.76731 18.4203C9.17118 18.022 8.70655 17.4559 8.43219 16.7935C8.15782 16.1311 8.08603 15.4022 8.2259 14.699C8.36577 13.9959 8.71102 13.35 9.21799 12.843C9.72495 12.336 10.3709 11.9908 11.074 11.8509C11.7772 11.711 12.5061 11.7828 13.1685 12.0572C13.8309 12.3316 14.397 12.7962 14.7953 13.3923C15.1936 13.9884 15.4062 14.6893 15.4062 15.4062C15.4062 16.3677 15.0243 17.2897 14.3445 17.9695C13.6647 18.6493 12.7427 19.0312 11.7812 19.0312ZM24.4688 22.6562H18.0604C17.6653 21.975 17.1618 21.3628 16.5696 20.8438H21.75C21.9904 20.8438 22.2209 20.7483 22.3908 20.5783C22.5608 20.4084 22.6562 20.1779 22.6562 19.9375V9.0625C22.6562 8.82215 22.5608 8.59164 22.3908 8.42168C22.2209 8.25173 21.9904 8.15625 21.75 8.15625H7.25C7.00965 8.15625 6.77914 8.25173 6.60918 8.42168C6.43923 8.59164 6.34375 8.82215 6.34375 9.0625V19.9375C6.34365 20.1385 6.41037 20.3338 6.53341 20.4927C6.65645 20.6517 6.82883 20.7652 7.02344 20.8154C6.41762 21.3403 5.90347 21.9624 5.50207 22.6562H4.53125V6.34375H24.4688V22.6562Z" fill="black"/>
</svg>
