<svg width="21" height="22" viewBox="0 0 21 22" fill="none" xmlns="http://www.w3.org/2000/svg">
<path d="M15.75 5.06772H12.0187C11.7459 5.04977 6.99188 4.67276 2.46469 0.395788C2.24607 0.188964 1.97959 0.0567136 1.69656 0.0145715C1.41353 -0.0275707 1.12571 0.0221459 0.866889 0.157881C0.608073 0.293616 0.38902 0.509732 0.235461 0.780841C0.081903 1.05195 0.00021725 1.36679 0 1.68838V18.5851C3.88961e-05 18.9068 0.0815953 19.2217 0.235084 19.493C0.388572 19.7643 0.607614 19.9806 0.866465 20.1164C1.12532 20.2523 1.41322 20.3021 1.69633 20.26C1.97945 20.2179 2.24601 20.0856 2.46469 19.8787C6.00563 16.5332 9.68344 15.5743 11.25 15.3061V18.6558C11.2497 18.9343 11.3105 19.2085 11.4269 19.4541C11.5434 19.6996 11.7119 19.909 11.9175 20.0635L12.9487 20.8376C13.1481 20.9875 13.3764 21.0814 13.6145 21.1114C13.8527 21.1415 14.0938 21.1068 14.3176 21.0103C14.5414 20.9138 14.7414 20.7583 14.901 20.5569C15.0605 20.3554 15.1748 20.1138 15.2344 19.8523L16.3378 15.1677C17.4785 15.0099 18.5224 14.3664 19.2553 13.3692C19.9882 12.372 20.3546 11.0968 20.2795 9.80494C20.2043 8.51312 19.6932 7.30266 18.8509 6.42181C18.0087 5.54096 16.8992 5.05648 15.75 5.06772ZM13.7812 19.4183V19.4299L12.75 18.6558V15.2057H14.775L13.7812 19.4183ZM15.75 13.5161H12.75V6.75739H15.75C16.5456 6.75739 17.3087 7.11343 17.8713 7.74718C18.4339 8.38093 18.75 9.24048 18.75 10.1367C18.75 11.033 18.4339 11.8925 17.8713 12.5263C17.3087 13.16 16.5456 13.5161 15.75 13.5161Z" fill="black"/>
</svg>
