<svg width="38" height="39" viewBox="0 0 38 39" fill="none" xmlns="http://www.w3.org/2000/svg">
<path d="M23.2222 13C22.6241 13 22.123 12.792 21.7191 12.376C21.3152 11.96 21.1125 11.4458 21.1111 10.8333V2.16667C21.1111 1.55278 21.3138 1.03856 21.7191 0.624C22.1244 0.209445 22.6255 0.00144444 23.2222 0H35.8889C36.487 0 36.9888 0.208 37.3941 0.624C37.7994 1.04 38.0014 1.55422 38 2.16667V10.8333C38 11.4472 37.7973 11.9622 37.392 12.3782C36.9867 12.7942 36.4856 13.0014 35.8889 13H23.2222ZM2.11111 21.6667C1.51296 21.6667 1.01193 21.4587 0.608 21.0427C0.204074 20.6267 0.00140741 20.1124 0 19.5V2.16667C0 1.55278 0.202667 1.03856 0.608 0.624C1.01333 0.209445 1.51437 0.00144444 2.11111 0H14.7778C15.3759 0 15.8777 0.208 16.283 0.624C16.6883 1.04 16.8903 1.55422 16.8889 2.16667V19.5C16.8889 20.1139 16.6862 20.6288 16.2809 21.0448C15.8756 21.4608 15.3745 21.6681 14.7778 21.6667H2.11111ZM23.2222 39C22.6241 39 22.123 38.792 21.7191 38.376C21.3152 37.96 21.1125 37.4458 21.1111 36.8333V19.5C21.1111 18.8861 21.3138 18.3719 21.7191 17.9573C22.1244 17.5428 22.6255 17.3348 23.2222 17.3333H35.8889C36.487 17.3333 36.9888 17.5413 37.3941 17.9573C37.7994 18.3733 38.0014 18.8876 38 19.5V36.8333C38 37.4472 37.7973 37.9622 37.392 38.3782C36.9867 38.7942 36.4856 39.0014 35.8889 39H23.2222ZM2.11111 39C1.51296 39 1.01193 38.792 0.608 38.376C0.204074 37.96 0.00140741 37.4458 0 36.8333V28.1667C0 27.5528 0.202667 27.0386 0.608 26.624C1.01333 26.2094 1.51437 26.0014 2.11111 26H14.7778C15.3759 26 15.8777 26.208 16.283 26.624C16.6883 27.04 16.8903 27.5542 16.8889 28.1667V36.8333C16.8889 37.4472 16.6862 37.9622 16.2809 38.3782C15.8756 38.7942 15.3745 39.0014 14.7778 39H2.11111Z" fill="#314F8D"/>
</svg>
