<svg width="18" height="21" viewBox="0 0 18 21" fill="none" xmlns="http://www.w3.org/2000/svg">
<path d="M1 11.2645H7C7.55 11.2645 8 10.7576 8 10.138V1.12645C8 0.506901 7.55 0 7 0H1C0.45 0 0 0.506901 0 1.12645V10.138C0 10.7576 0.45 11.2645 1 11.2645ZM1 20.276H7C7.55 20.276 8 19.7691 8 19.1496V14.6438C8 14.0243 7.55 13.5174 7 13.5174H1C0.45 13.5174 0 14.0243 0 14.6438V19.1496C0 19.7691 0.45 20.276 1 20.276ZM11 20.276H17C17.55 20.276 18 19.7691 18 19.1496V10.138C18 9.51847 17.55 9.01157 17 9.01157H11C10.45 9.01157 10 9.51847 10 10.138V19.1496C10 19.7691 10.45 20.276 11 20.276ZM10 1.12645V5.63223C10 6.25178 10.45 6.75868 11 6.75868H17C17.55 6.75868 18 6.25178 18 5.63223V1.12645C18 0.506901 17.55 0 17 0H11C10.45 0 10 0.506901 10 1.12645Z" fill="black"/>
</svg>
