<svg width="14" height="16" viewBox="0 0 14 16" fill="none" xmlns="http://www.w3.org/2000/svg">
<path d="M13.16 2.90909H0.84C0.617218 2.90909 0.403561 3.00104 0.24603 3.16471C0.0884998 3.32838 0 3.55036 0 3.78182C0 4.01328 0.0884998 4.23526 0.24603 4.39893C0.403561 4.5626 0.617218 4.65455 0.84 4.65455H1.12V14.5455C1.12 14.9312 1.2675 15.3012 1.53005 15.574C1.7926 15.8468 2.1487 16 2.52 16H11.48C11.8513 16 12.2074 15.8468 12.4699 15.574C12.7325 15.3012 12.88 14.9312 12.88 14.5455V4.65455H13.16C13.3828 4.65455 13.5964 4.5626 13.754 4.39893C13.9115 4.23526 14 4.01328 14 3.78182C14 3.55036 13.9115 3.32838 13.754 3.16471C13.5964 3.00104 13.3828 2.90909 13.16 2.90909ZM11.2 14.2545H2.8V4.65455H11.2V14.2545ZM3.36 0.872727C3.36 0.641266 3.4485 0.419284 3.60603 0.255616C3.76356 0.0919478 3.97722 0 4.2 0H9.8C10.0228 0 10.2364 0.0919478 10.394 0.255616C10.5515 0.419284 10.64 0.641266 10.64 0.872727C10.64 1.10419 10.5515 1.32617 10.394 1.48984C10.2364 1.65351 10.0228 1.74545 9.8 1.74545H4.2C3.97722 1.74545 3.76356 1.65351 3.60603 1.48984C3.4485 1.32617 3.36 1.10419 3.36 0.872727Z" fill="#FF0000"/>
</svg>
