<svg width="21" height="21" viewBox="0 0 21 21" fill="none" xmlns="http://www.w3.org/2000/svg">
<path d="M11.593 10.9512L8.38363 14.1606C8.20275 14.3414 7.95744 14.443 7.70164 14.443C7.44584 14.443 7.20052 14.3414 7.01965 14.1606C6.83877 13.9797 6.73716 13.7344 6.73716 13.4786C6.73716 13.2228 6.83877 12.9775 7.01965 12.7966L8.58502 11.2328H1.92558C1.67023 11.2328 1.42533 11.1314 1.24477 10.9508C1.06421 10.7702 0.962769 10.5254 0.962769 10.27C0.962769 10.0146 1.06421 9.76975 1.24477 9.58919C1.42533 9.40863 1.67023 9.30719 1.92558 9.30719H8.58502L7.02125 7.74182C6.93169 7.65226 6.86065 7.54594 6.81218 7.42892C6.76371 7.31191 6.73876 7.18649 6.73876 7.05983C6.73876 6.80404 6.84038 6.55872 7.02125 6.37784C7.20213 6.19697 7.44745 6.09535 7.70324 6.09535C7.95904 6.09535 8.20436 6.19697 8.38523 6.37784L11.5946 9.58721C11.6843 9.67676 11.7554 9.78313 11.8038 9.90022C11.8523 10.0173 11.8771 10.1428 11.877 10.2695C11.8768 10.3963 11.8517 10.5217 11.8029 10.6387C11.7542 10.7556 11.6829 10.8618 11.593 10.9512ZM16.0468 2.24658H10.9118C10.6565 2.24658 10.4116 2.34802 10.231 2.52858C10.0504 2.70914 9.949 2.95404 9.949 3.20939C9.949 3.46475 10.0504 3.70964 10.231 3.8902C10.4116 4.07076 10.6565 4.1722 10.9118 4.1722H15.084V16.3678H10.9118C10.6565 16.3678 10.4116 16.4692 10.231 16.6498C10.0504 16.8304 9.949 17.0753 9.949 17.3306C9.949 17.586 10.0504 17.8309 10.231 18.0114C10.4116 18.192 10.6565 18.2934 10.9118 18.2934H16.0468C16.3022 18.2934 16.547 18.192 16.7276 18.0114C16.9082 17.8309 17.0096 17.586 17.0096 17.3306V3.20939C17.0096 2.95404 16.9082 2.70914 16.7276 2.52858C16.547 2.34802 16.3022 2.24658 16.0468 2.24658Z" fill="black" fill-opacity="0.54"/>
</svg>
