<svg width="18" height="18" viewBox="0 0 18 18" fill="none" xmlns="http://www.w3.org/2000/svg">
<path d="M12.375 1.6875V2.8125H14.3792L12.4807 4.72838C11.8022 4.21592 10.9753 3.93831 10.125 3.9375C9.0731 3.9375 8.09097 4.35375 7.34735 5.09794C6.97977 5.46108 6.68795 5.89357 6.48879 6.37035C6.28964 6.84713 6.18711 7.3587 6.18716 7.8754C6.18722 8.3921 6.28984 8.90365 6.4891 9.38039C6.68835 9.85712 6.98026 10.2896 7.34791 10.6526C7.83728 11.142 8.42003 11.4936 9.07028 11.6719C9.13441 11.6229 9.20641 11.5717 9.26378 11.5144C9.49956 11.2746 9.66897 10.9776 9.75541 10.6526C9.14295 10.5773 8.57349 10.2986 8.13822 9.86119C7.60722 9.33075 7.31247 8.6265 7.31247 7.875C7.31247 7.1235 7.60778 6.42038 8.13935 5.88938C8.66922 5.35669 9.37347 5.0625 10.125 5.0625C10.8765 5.0625 11.5802 5.35781 12.1106 5.88938C12.373 6.14917 12.5811 6.45845 12.7231 6.7993C12.865 7.14015 12.9379 7.50578 12.9375 7.875C12.9375 8.36156 12.7997 8.81438 12.5685 9.22838C12.6225 9.51863 12.6562 9.8235 12.6562 10.125C12.6562 10.4059 12.6328 10.6815 12.5859 10.9519C12.6984 10.8602 12.7985 10.7561 12.9026 10.6526C13.6462 9.90787 14.0625 8.92688 14.0625 7.875C14.0625 7.01438 13.779 6.1965 13.2716 5.51925L15.1875 3.62138V5.625H16.3125V1.6875H12.375ZM8.92966 6.32812C8.86553 6.37706 8.79353 6.42825 8.73616 6.48562C8.49316 6.72975 8.33453 7.02562 8.24453 7.34794C8.85766 7.42669 9.41735 7.69444 9.86172 8.13881C10.3933 8.66925 10.6886 9.3735 10.6886 10.1244C10.6886 10.8754 10.3933 11.5791 9.86172 12.1101C9.33072 12.6433 8.62647 12.9375 7.87497 12.9375C7.12347 12.9375 6.41978 12.6422 5.88935 12.1106C5.62674 11.851 5.41839 11.5418 5.27643 11.2009C5.13448 10.86 5.06174 10.4943 5.06247 10.125C5.06247 9.63844 5.20028 9.18562 5.43147 8.77162C5.37563 8.47595 5.34627 8.17589 5.34372 7.875C5.34372 7.5945 5.36716 7.31887 5.41403 7.04812C5.30153 7.13981 5.20197 7.24387 5.09735 7.34794C4.35485 8.091 3.93747 9.07312 3.93747 10.125C3.93747 10.9856 4.22097 11.8035 4.72835 12.4807L3.77997 13.4297L2.65497 12.3047L1.84497 13.0956L2.96997 14.2206L1.84497 15.3456L2.65497 16.1556L3.77997 15.0306L4.90497 16.1556L5.69528 15.3456L4.57028 14.2206L5.51978 13.2722C6.19765 13.7854 7.02473 14.063 7.87497 14.0625C8.92685 14.0625 9.90897 13.6463 10.6526 12.9021C11.3962 12.159 11.8125 11.1769 11.8125 10.125C11.8125 9.07312 11.3962 8.09213 10.652 7.34738C10.1627 6.858 9.57991 6.50644 8.92966 6.32812Z" fill="black" fill-opacity="0.71"/>
</svg>
