<svg width="24" height="24" viewBox="0 0 24 24" fill="none" xmlns="http://www.w3.org/2000/svg">
<path d="M4.05439 7.13147C3.69977 7.20739 3.38002 7.39796 3.14451 7.67374C2.90901 7.94952 2.77086 8.29517 2.7514 8.6573C2.73194 9.01943 2.83226 9.3779 3.03686 9.67732C3.24146 9.97675 3.53895 10.2005 3.88339 10.314L12.5119 12.833L21.2499 10.337" stroke="black" stroke-opacity="0.8" stroke-width="0.5" stroke-linecap="round" stroke-linejoin="round"/>
<path d="M4.05439 10.3781C3.69977 10.454 3.38002 10.6445 3.14451 10.9203C2.90901 11.1961 2.77086 11.5418 2.7514 11.9039C2.73194 12.266 2.83226 12.6245 3.03686 12.9239C3.24146 13.2233 3.53895 13.4471 3.88339 13.5606L12.5119 16.0796L21.2499 13.5836" stroke="black" stroke-opacity="0.8" stroke-width="0.5" stroke-linecap="round" stroke-linejoin="round"/>
<path d="M4.05445 13.66C3.70003 13.7361 3.38051 13.9267 3.14519 14.2025C2.90987 14.4782 2.77183 14.8237 2.75238 15.1857C2.73293 15.5476 2.83314 15.9059 3.03756 16.2053C3.24197 16.5046 3.53923 16.7284 3.88345 16.842L12.5119 19.361L21.2499 16.865V7.11654M21.2499 7.11654L12.5119 4.63904L4.04095 7.12554L12.5119 9.61254L21.2499 7.11654Z" stroke="black" stroke-opacity="0.8" stroke-width="0.5" stroke-linecap="round" stroke-linejoin="round"/>
</svg>
