<svg width="18" height="21" viewBox="0 0 18 21" fill="none" xmlns="http://www.w3.org/2000/svg">
<path d="M7.5 19.4312C7.5 19.6553 7.42098 19.8702 7.28033 20.0286C7.13968 20.187 6.94891 20.276 6.75 20.276H0.75C0.551088 20.276 0.360322 20.187 0.21967 20.0286C0.0790178 19.8702 0 19.6553 0 19.4312V0.844835C0 0.620771 0.0790178 0.405884 0.21967 0.247447C0.360322 0.0890093 0.551088 0 0.75 0H6.75C6.94891 0 7.13968 0.0890093 7.28033 0.247447C7.42098 0.405884 7.5 0.620771 7.5 0.844835C7.5 1.0689 7.42098 1.28379 7.28033 1.44222C7.13968 1.60066 6.94891 1.68967 6.75 1.68967H1.5V18.5864H6.75C6.94891 18.5864 7.13968 18.6754 7.28033 18.8338C7.42098 18.9922 7.5 19.2071 7.5 19.4312ZM17.7806 9.5403L14.0306 5.31612C13.9257 5.19784 13.792 5.11727 13.6465 5.08461C13.5009 5.05196 13.35 5.06869 13.2129 5.13269C13.0758 5.19669 12.9586 5.30508 12.8762 5.44413C12.7938 5.58319 12.7499 5.74665 12.75 5.91384V9.29318H6.75C6.55109 9.29318 6.36032 9.38219 6.21967 9.54063C6.07902 9.69907 6 9.91395 6 10.138C6 10.3621 6.07902 10.577 6.21967 10.7354C6.36032 10.8938 6.55109 10.9829 6.75 10.9829H12.75V14.3622C12.7499 14.5294 12.7938 14.6928 12.8762 14.8319C12.9586 14.971 13.0758 15.0793 13.2129 15.1433C13.35 15.2073 13.5009 15.2241 13.6465 15.1914C13.792 15.1588 13.9257 15.0782 14.0306 14.9599L17.7806 10.7357C17.8504 10.6573 17.9057 10.5641 17.9434 10.4615C17.9812 10.359 18.0006 10.249 18.0006 10.138C18.0006 10.027 17.9812 9.91706 17.9434 9.8145C17.9057 9.71193 17.8504 9.61876 17.7806 9.5403Z" fill="black"/>
</svg>
