<svg width="16" height="16" viewBox="0 0 16 16" fill="none" xmlns="http://www.w3.org/2000/svg">
<path d="M3.5 1.5L5.633 6.68C4.355 7.474 3.5 8.887 3.5 10.5C3.5 12.981 5.5185 15 8 15C10.4815 15 12.5 12.981 12.5 10.5C12.5 8.8875 11.645 7.4745 10.367 6.68L12.5 1.5H11.419L9.463 6.249C9.12973 6.13339 8.78402 6.05737 8.433 6.0225L10.2935 1.5H9.2125L7.3365 6.055C7.06447 6.09509 6.79668 6.16003 6.5365 6.249L4.581 1.5H3.5ZM5.706 1.5L6.9765 4.587L7.5175 3.2735L6.7875 1.5H5.706ZM8 7C9.9295 7 11.5 8.57 11.5 10.5C11.5 12.43 9.9295 14 8 14C6.0705 14 4.5 12.43 4.5 10.5C4.5 8.57 6.0705 7 8 7ZM8 8.581L7.416 9.891L6 10.046L7.06 10.998L6.7615 12.403L8 11.689L9.2385 12.404L8.9405 10.999L10 10.0455L8.584 9.8905L8 8.581Z" fill="black"/>
</svg>
