<svg width="57" height="40" viewBox="0 0 57 40" fill="none" xmlns="http://www.w3.org/2000/svg">
<path d="M36.7609 36.908C36.9392 37.2097 37.0404 37.5589 37.0537 37.9188C37.067 38.2788 36.9919 38.636 36.8364 38.9527C36.6809 39.2694 36.4507 39.5339 36.1702 39.7183C35.8897 39.9026 35.5693 40 35.2427 40H1.81246C1.48594 40 1.16549 39.9026 0.884977 39.7183C0.604461 39.5339 0.37429 39.2694 0.218782 38.9527C0.0632749 38.636 -0.0117948 38.2788 0.00150453 37.9188C0.0148038 37.5589 0.115978 37.2097 0.294339 36.908C2.84592 32.5752 6.59904 29.2687 10.9937 27.4819C8.56422 25.6977 6.71976 23.0983 5.73304 20.0682C4.74633 17.038 4.66974 13.7381 5.5146 10.6562C6.35946 7.57437 8.08092 4.87427 10.4244 2.95521C12.7679 1.03614 15.609 0 18.5276 0C21.4462 0 24.2873 1.03614 26.6308 2.95521C28.9743 4.87427 30.6957 7.57437 31.5406 10.6562C32.3855 13.7381 32.3089 17.038 31.3222 20.0682C30.3354 23.0983 28.491 25.6977 26.0615 27.4819C30.4562 29.2687 34.2093 32.5752 36.7609 36.908ZM56.6799 36.8705C54.1276 32.556 50.3829 29.2637 46.001 27.4819C48.8691 25.3506 50.8931 22.0937 51.6612 18.3742C52.4293 14.6546 51.8836 10.7519 50.1353 7.46052C48.3869 4.16913 45.5674 1.73642 42.2504 0.657559C38.9335 -0.421299 35.3686 -0.0652141 32.2813 1.65333C32.1632 1.72058 32.06 1.81563 31.979 1.93177C31.8979 2.0479 31.841 2.18227 31.8122 2.32537C31.7835 2.46846 31.7836 2.61678 31.8126 2.75982C31.8416 2.90287 31.8987 3.03713 31.9799 3.15311C34.2756 6.31215 35.594 10.1991 35.742 14.2447C35.89 18.2903 34.8599 22.2818 32.8024 25.6347C32.6694 25.8538 32.6203 26.122 32.6657 26.3809C32.7111 26.6398 32.8474 26.8684 33.0449 27.017C35.7274 29.0823 38.0238 31.6989 39.8084 34.7233C40.5282 35.9393 40.8221 37.4026 40.6355 38.8402C40.6144 38.9832 40.6219 39.1295 40.6572 39.269C40.6925 39.4086 40.7549 39.538 40.84 39.6483C40.9251 39.7586 41.0309 39.8472 41.1502 39.9079C41.2694 39.9686 41.3992 40.0001 41.5305 40H55.1935C55.5927 40.0001 55.9807 39.8549 56.2974 39.5869C56.6141 39.3189 56.8417 38.9431 56.945 38.5177C57.008 38.238 57.017 37.9468 56.9713 37.663C56.9257 37.3792 56.8264 37.1092 56.6799 36.8705Z" fill="#314F8D"/>
</svg>
