<svg width="24" height="17" viewBox="0 0 24 17" fill="none" xmlns="http://www.w3.org/2000/svg">
<path d="M15.2099 15.5929C15.2837 15.7204 15.3256 15.868 15.3311 16.02C15.3366 16.1721 15.3055 16.323 15.2412 16.4568C15.1768 16.5906 15.0816 16.7024 14.9655 16.7802C14.8495 16.8581 14.7169 16.8992 14.5818 16.8993H0.749908C0.614811 16.8992 0.482226 16.8581 0.366162 16.7802C0.250097 16.7024 0.154864 16.5906 0.0905218 16.4568C0.0261802 16.323 -0.00488012 16.1721 0.000622504 16.02C0.00612513 15.868 0.0479864 15.7204 0.121783 15.5929C1.17751 13.7624 2.73037 12.3655 4.54866 11.6106C3.54347 10.8568 2.78032 9.7586 2.37206 8.47843C1.96381 7.19826 1.93212 5.80408 2.28168 4.50206C2.63125 3.20003 3.3435 2.05929 4.31313 1.24852C5.28276 0.437751 6.45827 0 7.66585 0C8.87342 0 10.0489 0.437751 11.0186 1.24852C11.9882 2.05929 12.7004 3.20003 13.05 4.50206C13.3996 5.80408 13.3679 7.19826 12.9596 8.47843C12.5514 9.7586 11.7882 10.8568 10.783 11.6106C12.6013 12.3655 14.1542 13.7624 15.2099 15.5929ZM23.4515 15.5771C22.3955 13.7543 20.8461 12.3634 19.033 11.6106C20.2197 10.7102 21.0572 9.33419 21.375 7.76274C21.6928 6.19129 21.467 4.54248 20.7436 3.15193C20.0202 1.76138 18.8536 0.733605 17.4812 0.277807C16.1089 -0.177991 14.6339 -0.0275518 13.3565 0.698504C13.3076 0.726913 13.2649 0.767071 13.2314 0.816135C13.1978 0.8652 13.1743 0.92197 13.1624 0.982425C13.1505 1.04288 13.1506 1.10554 13.1625 1.16598C13.1745 1.22641 13.1982 1.28313 13.2318 1.33213C14.1816 2.66677 14.7271 4.30895 14.7884 6.01813C14.8496 7.7273 14.4234 9.41366 13.5721 10.8302C13.5171 10.9228 13.4967 11.0361 13.5155 11.1454C13.5343 11.2548 13.5907 11.3514 13.6724 11.4142C14.7823 12.2868 15.7325 13.3922 16.4708 14.67C16.7686 15.1837 16.8903 15.8019 16.813 16.4093C16.8043 16.4697 16.8074 16.5315 16.822 16.5904C16.8366 16.6494 16.8624 16.7041 16.8977 16.7507C16.9329 16.7973 16.9767 16.8347 17.026 16.8604C17.0753 16.886 17.129 16.8993 17.1833 16.8993H22.8365C23.0016 16.8993 23.1622 16.838 23.2932 16.7247C23.4242 16.6115 23.5184 16.4527 23.5612 16.273C23.5872 16.1549 23.5909 16.0318 23.572 15.9119C23.5531 15.792 23.5121 15.6779 23.4515 15.5771Z" fill="black"/>
</svg>
