<svg width="30" height="30" viewBox="0 0 30 30" fill="none" xmlns="http://www.w3.org/2000/svg">
<path d="M12.5 8.125H15C15 4.57875 11.5562 2.96125 8.75 2.58875V0H6.25V2.58875C3.44375 2.96125 0 4.57875 0 8.125C0 11.5075 3.3325 13.2663 6.25 13.6625V19.875C4.44 19.5612 2.5 18.595 2.5 16.875H0C0 20.1112 3.03125 22.0238 6.25 22.42V25H8.75V22.4125C11.5562 22.04 15 20.4212 15 16.875C15 13.3288 11.5562 11.7113 8.75 11.3387V5.125C10.4125 5.42375 12.5 6.30125 12.5 8.125ZM2.5 8.125C2.5 6.30125 4.5875 5.42375 6.25 5.125V11.1238C4.53625 10.8075 2.5 9.87125 2.5 8.125ZM12.5 16.875C12.5 18.6987 10.4125 19.5763 8.75 19.875V13.875C10.4125 14.1738 12.5 15.0513 12.5 16.875Z" fill="black"/>
</svg>
