<svg width="30" height="30" viewBox="0 0 30 30" fill="none" xmlns="http://www.w3.org/2000/svg">
<path fill-rule="evenodd" clip-rule="evenodd" d="M10 5H20V2.5H22.5V5H23.75C24.413 5 25.0489 5.26339 25.5178 5.73223C25.9866 6.20107 26.25 6.83696 26.25 7.5V25C26.25 25.663 25.9866 26.2989 25.5178 26.7678C25.0489 27.2366 24.413 27.5 23.75 27.5H6.25C5.58696 27.5 4.95107 27.2366 4.48223 26.7678C4.01339 26.2989 3.75 25.663 3.75 25V7.5C3.75 6.83696 4.01339 6.20107 4.48223 5.73223C4.95107 5.26339 5.58696 5 6.25 5H7.5V2.5H10V5ZM6.25 10V25H23.75V10H6.25ZM8.75 13.75H11.25V16.25H8.75V13.75ZM13.75 13.75H16.25V16.25H13.75V13.75ZM18.75 13.75H21.25V16.25H18.75V13.75ZM18.75 18.75H21.25V21.25H18.75V18.75ZM13.75 18.75H16.25V21.25H13.75V18.75ZM8.75 18.75H11.25V21.25H8.75V18.75Z" fill="black"/>
</svg>
