<svg width="20" height="17" viewBox="0 0 20 17" fill="none" xmlns="http://www.w3.org/2000/svg">
<path d="M18 0H1.5C1.10218 0 0.720644 0.158035 0.43934 0.43934C0.158035 0.720644 0 1.10218 0 1.5V15C0 15.3978 0.158035 15.7794 0.43934 16.0607C0.720644 16.342 1.10218 16.5 1.5 16.5H2.75531C2.89726 16.5 3.0363 16.4598 3.15628 16.384C3.27627 16.3081 3.37227 16.1998 3.43312 16.0716C3.79783 15.3016 4.37363 14.6509 5.09357 14.1953C5.81351 13.7397 6.648 13.4978 7.5 13.4978C8.352 13.4978 9.18649 13.7397 9.90643 14.1953C10.6264 14.6509 11.2022 15.3016 11.5669 16.0716C11.6277 16.1998 11.7237 16.3081 11.8437 16.384C11.9637 16.4598 12.1027 16.5 12.2447 16.5H18C18.3978 16.5 18.7794 16.342 19.0607 16.0607C19.342 15.7794 19.5 15.3978 19.5 15V1.5C19.5 1.10218 19.342 0.720644 19.0607 0.43934C18.7794 0.158035 18.3978 0 18 0ZM5.25 9.75C5.25 9.30499 5.38196 8.86998 5.62919 8.49997C5.87643 8.12996 6.22783 7.84157 6.63896 7.67127C7.0501 7.50097 7.5025 7.45642 7.93895 7.54323C8.37541 7.63005 8.77632 7.84434 9.09099 8.15901C9.40566 8.47368 9.61995 8.87459 9.70677 9.31105C9.79358 9.7475 9.74903 10.1999 9.57873 10.611C9.40843 11.0222 9.12004 11.3736 8.75003 11.6208C8.38002 11.868 7.94501 12 7.5 12C6.90326 12 6.33097 11.7629 5.90901 11.341C5.48705 10.919 5.25 10.3467 5.25 9.75ZM18 15H12.6966C12.0703 13.9232 11.1262 13.0665 9.99375 12.5475C10.5615 12.042 10.9622 11.3758 11.1427 10.6374C11.3232 9.89898 11.2751 9.12311 11.0046 8.41267C10.7342 7.70222 10.2542 7.09075 9.6283 6.65931C9.00242 6.22787 8.26018 5.99684 7.5 5.99684C6.73982 5.99684 5.99758 6.22787 5.3717 6.65931C4.74581 7.09075 4.26582 7.70222 3.99536 8.41267C3.7249 9.12311 3.67675 9.89898 3.85728 10.6374C4.03782 11.3758 4.43851 12.042 5.00625 12.5475C3.87385 13.0665 2.92975 13.9232 2.30344 15H1.5V1.5H18V15ZM3 5.25V3.75C3 3.55109 3.07902 3.36032 3.21967 3.21967C3.36032 3.07902 3.55109 3 3.75 3H15.75C15.9489 3 16.1397 3.07902 16.2803 3.21967C16.421 3.36032 16.5 3.55109 16.5 3.75V12.75C16.5 12.9489 16.421 13.1397 16.2803 13.2803C16.1397 13.421 15.9489 13.5 15.75 13.5H14.25C14.0511 13.5 13.8603 13.421 13.7197 13.2803C13.579 13.1397 13.5 12.9489 13.5 12.75C13.5 12.5511 13.579 12.3603 13.7197 12.2197C13.8603 12.079 14.0511 12 14.25 12H15V4.5H4.5V5.25C4.5 5.44891 4.42098 5.63968 4.28033 5.78033C4.13968 5.92098 3.94891 6 3.75 6C3.55109 6 3.36032 5.92098 3.21967 5.78033C3.07902 5.63968 3 5.44891 3 5.25Z" fill="black"/>
</svg>
