<svg width="48" height="36" viewBox="0 0 48 36" fill="none" xmlns="http://www.w3.org/2000/svg">
<path d="M23.9583 20.8333C29.7167 20.8333 34.375 16.1708 34.375 10.4167C34.375 4.6625 29.7167 0 23.9583 0C18.2 0 13.5417 4.6625 13.5417 10.4167C13.5417 16.1708 18.2 20.8333 23.9583 20.8333ZM23.9583 4.16667C27.4042 4.16667 30.2083 6.97083 30.2083 10.4167C30.2083 13.8625 27.4042 16.6667 23.9583 16.6667C20.5125 16.6667 17.7083 13.8625 17.7083 10.4167C17.7083 6.97083 20.5125 4.16667 23.9583 4.16667ZM40.625 22.9167C42.0063 22.9167 43.3311 22.3679 44.3078 21.3912C45.2846 20.4144 45.8333 19.0897 45.8333 17.7083C45.8333 16.327 45.2846 15.0022 44.3078 14.0255C43.3311 13.0487 42.0063 12.5 40.625 12.5C39.2437 12.5 37.9189 13.0487 36.9422 14.0255C35.9654 15.0022 35.4167 16.327 35.4167 17.7083C35.4167 19.0897 35.9654 20.4144 36.9422 21.3912C37.9189 22.3679 39.2437 22.9167 40.625 22.9167ZM40.625 14.5833C42.3479 14.5833 43.75 15.9854 43.75 17.7083C43.75 19.4312 42.3479 20.8333 40.625 20.8333C38.9021 20.8333 37.5 19.4312 37.5 17.7083C37.5 15.9854 38.9021 14.5833 40.625 14.5833ZM40.625 24.1458C37.8521 24.1458 35.7667 24.9917 34.5479 26.1646C32.225 24.2521 28.5521 22.9167 23.9583 22.9167C19.2375 22.9167 15.6354 24.2667 13.35 26.175C12.1083 24.9979 10 24.1437 7.29167 24.1437C2.73333 24.1437 0 26.4167 0 28.6917C0 29.8271 2.73333 30.9667 7.29167 30.9667C8.55 30.9667 9.67917 30.8604 10.6729 30.6896L10.5896 31.2521C10.5896 33.3354 15.6 35.4187 23.9583 35.4187C31.7958 35.4187 37.3271 33.3354 37.3271 31.2521L37.2833 30.7208C38.2479 30.8729 39.3583 30.9667 40.625 30.9667C44.8979 30.9667 47.9167 29.8271 47.9167 28.6917C47.9167 26.4167 45.0563 24.1458 40.625 24.1458ZM7.29167 28.8813C4.56458 28.8813 2.98333 28.45 2.25625 28.1438C2.75417 27.3 4.34583 26.2271 7.29167 26.2271C9.59792 26.2271 11.1188 26.9583 11.8917 27.6979L11.4021 28.4146C10.4604 28.6625 9.09375 28.8813 7.29167 28.8813ZM23.9583 31.25C19.4521 31.25 16.6646 30.6 15.2417 30.0812C16.3271 28.6687 19.2375 27.0833 23.9583 27.0833C28.4771 27.0833 31.4375 28.6687 32.6 30.0521C31.0271 30.6146 28.0958 31.25 23.9583 31.25ZM40.625 28.8813C38.7208 28.8813 37.4042 28.6667 36.5146 28.4375C36.3621 28.1645 36.1894 27.9034 35.9979 27.6562C36.7396 26.9375 38.2292 26.2292 40.625 26.2292C43.3833 26.2292 45.0854 27.2729 45.6333 28.1271C44.8208 28.4667 43.1229 28.8813 40.625 28.8813ZM7.29167 22.9167C8.673 22.9167 9.99776 22.3679 10.9745 21.3912C11.9513 20.4144 12.5 19.0897 12.5 17.7083C12.5 16.327 11.9513 15.0022 10.9745 14.0255C9.99776 13.0487 8.673 12.5 7.29167 12.5C5.91033 12.5 4.58557 13.0487 3.60882 14.0255C2.63207 15.0022 2.08333 16.327 2.08333 17.7083C2.08333 19.0897 2.63207 20.4144 3.60882 21.3912C4.58557 22.3679 5.91033 22.9167 7.29167 22.9167ZM7.29167 14.5833C9.01458 14.5833 10.4167 15.9854 10.4167 17.7083C10.4167 19.4312 9.01458 20.8333 7.29167 20.8333C5.56875 20.8333 4.16667 19.4312 4.16667 17.7083C4.16667 15.9854 5.56875 14.5833 7.29167 14.5833Z" fill="black"/>
</svg>
