<svg width="28" height="27" viewBox="0 0 28 27" fill="none" xmlns="http://www.w3.org/2000/svg">
<path fill-rule="evenodd" clip-rule="evenodd" d="M14.796 9.46311L24.5 6.75L22.0847 16.2103L19.0716 13.421L14.2112 18.3031C14.0462 18.4688 13.8183 18.5625 13.58 18.5625C13.3417 18.5625 13.1138 18.4688 12.9488 18.3031L9.38 14.7184L4.13121 19.9906C3.79655 20.3267 3.24265 20.3376 2.89404 20.0149C2.54543 19.6922 2.53412 19.1581 2.86879 18.8219L8.74879 12.9157C8.91379 12.7499 9.14174 12.6562 9.38 12.6562C9.61826 12.6562 9.84621 12.7499 10.0112 12.9157L13.58 16.5004L17.8091 12.2524L14.796 9.46311Z" fill="#1C1C1C"/>
</svg>
